<svg width="2000px" height="1278px"
 viewBox="0.00 0.00 614.95 393.22" xmlns="http://www.w3.org/2000/svg" xmlns:xlink="http://www.w3.org/1999/xlink">
<g id="graph0" class="graph" transform="scale(1.0 1.0) rotate(0) translate(4 389.22)">
<title>ContextMapGraph</title>
<polygon fill="white" stroke="transparent" points="-4,4 -4,-389.22 610.95,-389.22 610.95,4 -4,4"/>
<!-- Combat -->
<g id="node1" class="node">
<title>Combat</title>
<polygon fill="none" stroke="black" stroke-width="2" points="167.4,-88.93 162.96,-87.82 158.63,-86.6 154.43,-85.29 150.37,-83.88 146.47,-82.38 142.75,-80.79 139.23,-79.13 135.9,-77.39 132.8,-75.58 129.92,-73.71 127.29,-71.79 124.91,-69.81 122.78,-67.78 120.92,-65.71 119.32,-63.61 118,-61.48 116.96,-59.33 116.19,-57.16 115.7,-54.97 115.48,-52.78 115.53,-50.59 115.85,-48.4 116.43,-46.21 117.26,-44.05 118.34,-41.9 119.65,-39.77 121.2,-37.67 122.96,-35.6 124.93,-33.57 127.09,-31.58 129.43,-29.63 131.94,-27.73 134.61,-25.89 137.42,-24.11 140.36,-22.38 143.42,-20.72 146.58,-19.13 149.84,-17.61 153.17,-16.17 156.56,-14.8 160.01,-13.52 163.51,-12.32 167.03,-11.21 170.58,-10.19 174.13,-9.26 177.69,-8.43 181.24,-7.7 184.78,-7.07 188.3,-6.55 191.79,-6.13 195.25,-5.82 198.67,-5.61 202.04,-5.52 205.37,-5.54 208.65,-5.68 211.87,-5.92 215.04,-6.28 218.15,-6.76 221.19,-7.35 224.17,-8.05 227.09,-8.87 229.94,-9.8 232.73,-10.84 235.44,-11.99 238.08,-13.24 240.65,-14.61 243.13,-16.07 245.54,-17.63 247.87,-19.29 250.11,-21.04 252.27,-22.87 254.33,-24.79 256.29,-26.78 258.16,-28.85 259.91,-30.98 261.55,-33.17 263.08,-35.42 264.48,-37.71 265.75,-40.05 266.88,-42.42 267.87,-44.81 268.71,-47.23 269.38,-49.65 269.9,-52.08 270.24,-54.51 270.4,-56.92 270.38,-59.32 270.16,-61.68 269.75,-64.02 269.13,-66.31 268.31,-68.55 267.27,-70.73 266.02,-72.85 264.56,-74.89 262.87,-76.86 260.97,-78.74 258.85,-80.54 256.51,-82.23 253.95,-83.83 251.19,-85.32 248.22,-86.69 245.05,-87.95 241.69,-89.1 238.14,-90.11 234.43,-91.01 230.54,-91.78 226.51,-92.41 222.34,-92.92 218.05,-93.29 213.64,-93.54 209.15,-93.65 204.57,-93.63 199.94,-93.48 195.27,-93.19 190.57,-92.79 185.87,-92.25 181.18,-91.6 176.53,-90.82 171.93,-89.93 167.4,-88.93"/>
<text text-anchor="middle" x="196.95" y="-44.92" font-family="sans-serif" font-size="16.00">Combat</text>
</g>
<!-- GameLoop -->
<g id="node2" class="node">
<title>GameLoop</title>
<polygon fill="none" stroke="black" stroke-width="2" points="79.23,-298.36 84.6,-297.19 90.03,-296.13 95.51,-295.2 101.01,-294.4 106.51,-293.72 111.99,-293.19 117.43,-292.78 122.82,-292.52 128.12,-292.4 133.32,-292.43 138.41,-292.59 143.37,-292.9 148.19,-293.36 152.84,-293.95 157.33,-294.69 161.62,-295.56 165.73,-296.57 169.63,-297.72 173.32,-298.99 176.79,-300.38 180.04,-301.9 183.07,-303.52 185.86,-305.26 188.42,-307.09 190.75,-309.02 192.85,-311.04 194.71,-313.14 196.35,-315.31 197.76,-317.55 198.94,-319.84 199.91,-322.18 200.66,-324.56 201.2,-326.97 201.54,-329.41 201.67,-331.86 201.61,-334.31 201.37,-336.77 200.93,-339.21 200.32,-341.64 199.54,-344.04 198.59,-346.42 197.48,-348.75 196.21,-351.03 194.78,-353.27 193.2,-355.44 191.48,-357.55 189.61,-359.59 187.61,-361.55 185.46,-363.44 183.18,-365.24 180.76,-366.95 178.22,-368.57 175.54,-370.1 172.73,-371.54 169.8,-372.87 166.74,-374.1 163.56,-375.23 160.25,-376.26 156.83,-377.18 153.28,-378 149.62,-378.71 145.85,-379.32 141.97,-379.82 137.98,-380.21 133.89,-380.51 129.71,-380.7 125.43,-380.78 121.08,-380.77 116.65,-380.65 112.16,-380.44 107.61,-380.13 103.01,-379.72 98.38,-379.22 93.72,-378.62 89.06,-377.93 84.4,-377.16 79.75,-376.29 75.14,-375.34 70.58,-374.3 66.08,-373.18 61.66,-371.99 57.34,-370.71 53.13,-369.35 49.05,-367.93 45.13,-366.42 41.37,-364.85 37.8,-363.22 34.42,-361.51 31.27,-359.75 28.34,-357.92 25.67,-356.04 23.25,-354.11 21.12,-352.13 19.27,-350.1 17.72,-348.03 16.48,-345.92 15.56,-343.78 14.96,-341.61 14.7,-339.42 14.77,-337.21 15.18,-334.98 15.93,-332.75 17.02,-330.51 18.45,-328.28 20.2,-326.06 22.29,-323.85 24.7,-321.67 27.42,-319.51 30.44,-317.39 33.74,-315.31 37.33,-313.28 41.17,-311.31 45.26,-309.4 49.58,-307.56 54.11,-305.8 58.83,-304.12 63.73,-302.53 68.77,-301.04 73.94,-299.64 79.23,-298.36"/>
<text text-anchor="middle" x="114.95" y="-334.73" font-family="sans-serif" font-size="16.00">GameLoop</text>
</g>
<!-- GameLoop&#45;&gt;Combat -->
<g id="edge2" class="edge">
<title>GameLoop&#45;&gt;Combat</title>
<path fill="none" stroke="black" stroke-width="2" d="M63.03,-302.52C44.19,-286.73 25.06,-266.33 14.95,-242.83 -1.99,-203.48 -7.12,-183.16 14.95,-146.43 38.54,-107.18 84.04,-83 123.64,-68.63"/>
<text text-anchor="middle" x="75.45" y="-191.53" font-family="sans-serif" font-size="12.00"> &#160;&#160;&#160;&#160;&#160;&#160;&#160;&#160;&#160;&#160;&#160;&#160;&#160;&#160;&#160;&#160;&#160;&#160;&#160;&#160;&#160;&#160;&#160;&#160;&#160;&#160;&#160;&#160;&#160;&#160;&#160;&#160;&#160;&#160;&#160;&#160;&#160;&#160;&#160;</text>
<polygon fill="white" stroke="transparent" points="105.64,-58.63 105.64,-77.63 121.64,-77.63 121.64,-58.63 105.64,-58.63"/>
<polyline fill="none" stroke="black" points="121.64,-58.63 121.64,-77.63 "/>
<text text-anchor="start" x="108.64" y="-65.03" font-family="sans-serif" font-size="12.00">D</text>
<polygon fill="white" stroke="transparent" points="121.64,-58.63 121.64,-77.63 141.64,-77.63 141.64,-58.63 121.64,-58.63"/>
<polygon fill="none" stroke="black" points="121.64,-58.63 121.64,-77.63 141.64,-77.63 141.64,-58.63 121.64,-58.63"/>
<text text-anchor="start" x="124.64" y="-65.03" font-family="sans-serif" font-size="12.00">CF</text>
<polygon fill="white" stroke="transparent" points="56.03,-293.52 56.03,-310.52 70.03,-310.52 70.03,-293.52 56.03,-293.52"/>
<text text-anchor="start" x="58.03" y="-298.92" font-family="sans-serif" font-size="12.00">U</text>
</g>
<!-- World -->
<g id="node3" class="node">
<title>World</title>
<polygon fill="none" stroke="black" stroke-width="2" points="273.25,-188.98 273.84,-191.84 274.26,-194.69 274.49,-197.53 274.55,-200.34 274.42,-203.11 274.1,-205.84 273.6,-208.52 272.92,-211.12 272.05,-213.65 271,-216.09 269.77,-218.44 268.37,-220.69 266.8,-222.83 265.05,-224.86 263.14,-226.76 261.08,-228.54 258.86,-230.19 256.5,-231.71 253.99,-233.1 251.36,-234.34 248.6,-235.45 245.73,-236.42 242.75,-237.25 239.68,-237.95 236.52,-238.51 233.28,-238.93 229.97,-239.23 226.61,-239.4 223.2,-239.44 219.76,-239.36 216.29,-239.16 212.8,-238.86 209.32,-238.44 205.84,-237.92 202.37,-237.3 198.94,-236.59 195.55,-235.8 192.2,-234.91 188.92,-233.95 185.7,-232.91 182.56,-231.81 179.51,-230.64 176.55,-229.4 173.7,-228.11 170.96,-226.76 168.34,-225.37 165.84,-223.92 163.48,-222.43 161.26,-220.9 159.18,-219.32 157.25,-217.71 155.47,-216.06 153.85,-214.38 152.39,-212.66 151.09,-210.91 149.96,-209.12 149,-207.31 148.2,-205.47 147.58,-203.6 147.13,-201.71 146.84,-199.79 146.73,-197.84 146.78,-195.87 147.01,-193.89 147.39,-191.88 147.95,-189.86 148.66,-187.83 149.53,-185.78 150.56,-183.73 151.73,-181.67 153.06,-179.62 154.53,-177.57 156.14,-175.53 157.88,-173.5 159.76,-171.5 161.76,-169.52 163.88,-167.57 166.11,-165.67 168.45,-163.81 170.9,-162 173.44,-160.25 176.08,-158.58 178.8,-156.97 181.6,-155.45 184.47,-154.02 187.4,-152.69 190.4,-151.46 193.44,-150.35 196.54,-149.35 199.66,-148.48 202.82,-147.75 206,-147.15 209.2,-146.69 212.4,-146.39 215.61,-146.23 218.8,-146.23 221.99,-146.39 225.14,-146.72 228.27,-147.2 231.36,-147.85 234.4,-148.66 237.38,-149.64 240.31,-150.77 243.16,-152.06 245.93,-153.51 248.62,-155.1 251.21,-156.84 253.7,-158.72 256.09,-160.73 258.35,-162.87 260.5,-165.12 262.51,-167.48 264.39,-169.93 266.13,-172.47 267.71,-175.1 269.15,-177.79 270.42,-180.53 271.53,-183.32 272.48,-186.14 273.25,-188.98"/>
<text text-anchor="middle" x="209.95" y="-190.83" font-family="sans-serif" font-size="16.00">World</text>
</g>
<!-- GameLoop&#45;&gt;World -->
<g id="edge1" class="edge">
<title>GameLoop&#45;&gt;World</title>
<path fill="none" stroke="black" stroke-width="2" d="M108.59,-293.16C108.83,-282.09 110.76,-270.59 115.95,-260.83 121.54,-250.31 142.55,-235.33 163.28,-222.38"/>
<text text-anchor="middle" x="176.45" y="-264.23" font-family="sans-serif" font-size="12.00"> &#160;&#160;&#160;&#160;&#160;&#160;&#160;&#160;&#160;&#160;&#160;&#160;&#160;&#160;&#160;&#160;&#160;&#160;&#160;&#160;&#160;&#160;&#160;&#160;&#160;&#160;&#160;&#160;&#160;&#160;&#160;&#160;&#160;&#160;&#160;&#160;&#160;&#160;&#160;</text>
<polygon fill="white" stroke="transparent" points="145.28,-212.38 145.28,-231.38 161.28,-231.38 161.28,-212.38 145.28,-212.38"/>
<polyline fill="none" stroke="black" points="161.28,-212.38 161.28,-231.38 "/>
<text text-anchor="start" x="148.28" y="-218.78" font-family="sans-serif" font-size="12.00">D</text>
<polygon fill="white" stroke="transparent" points="161.28,-212.38 161.28,-231.38 181.28,-231.38 181.28,-212.38 161.28,-212.38"/>
<polygon fill="none" stroke="black" points="161.28,-212.38 161.28,-231.38 181.28,-231.38 181.28,-212.38 161.28,-212.38"/>
<text text-anchor="start" x="164.28" y="-218.78" font-family="sans-serif" font-size="12.00">CF</text>
<polygon fill="white" stroke="transparent" points="101.59,-284.16 101.59,-301.16 115.59,-301.16 115.59,-284.16 101.59,-284.16"/>
<text text-anchor="start" x="103.59" y="-289.56" font-family="sans-serif" font-size="12.00">U</text>
</g>
<!-- Player -->
<g id="node4" class="node">
<title>Player</title>
<polygon fill="none" stroke="black" stroke-width="2" points="418.26,-154.86 422.14,-156.07 425.92,-157.38 429.58,-158.79 433.1,-160.29 436.48,-161.88 439.7,-163.55 442.75,-165.29 445.61,-167.11 448.27,-168.99 450.72,-170.93 452.96,-172.92 454.97,-174.95 456.75,-177.03 458.29,-179.15 459.6,-181.29 460.66,-183.46 461.47,-185.64 462.04,-187.84 462.37,-190.05 462.45,-192.25 462.29,-194.45 461.89,-196.65 461.26,-198.83 460.41,-200.99 459.34,-203.13 458.07,-205.24 456.59,-207.31 454.92,-209.35 453.07,-211.35 451.04,-213.31 448.86,-215.21 446.54,-217.07 444.07,-218.86 441.49,-220.6 438.79,-222.27 435.99,-223.87 433.1,-225.4 430.13,-226.86 427.1,-228.24 424.02,-229.54 420.89,-230.76 417.73,-231.89 414.54,-232.93 411.34,-233.88 408.14,-234.74 404.94,-235.5 401.75,-236.16 398.58,-236.71 395.43,-237.17 392.31,-237.52 389.23,-237.76 386.18,-237.89 383.18,-237.91 380.23,-237.82 377.33,-237.62 374.48,-237.3 371.69,-236.88 368.96,-236.33 366.28,-235.68 363.67,-234.91 361.13,-234.03 358.65,-233.03 356.23,-231.93 353.88,-230.72 351.61,-229.4 349.4,-227.98 347.27,-226.46 345.21,-224.84 343.23,-223.13 341.33,-221.33 339.52,-219.44 337.79,-217.47 336.15,-215.42 334.6,-213.31 333.16,-211.13 331.81,-208.89 330.58,-206.61 329.45,-204.27 328.45,-201.9 327.57,-199.5 326.82,-197.07 326.2,-194.63 325.72,-192.18 325.39,-189.73 325.22,-187.28 325.2,-184.86 325.35,-182.45 325.66,-180.08 326.15,-177.74 326.81,-175.46 327.66,-173.23 328.69,-171.05 329.91,-168.95 331.32,-166.93 332.92,-164.99 334.7,-163.14 336.68,-161.38 338.84,-159.72 341.19,-158.18 343.72,-156.74 346.43,-155.42 349.31,-154.22 352.35,-153.14 355.55,-152.19 358.89,-151.37 362.38,-150.68 365.99,-150.13 369.72,-149.7 373.55,-149.42 377.47,-149.27 381.46,-149.25 385.52,-149.36 389.62,-149.61 393.75,-149.99 397.9,-150.5 402.04,-151.13 406.17,-151.89 410.26,-152.77 414.29,-153.76 418.26,-154.86"/>
<text text-anchor="middle" x="389.95" y="-190.83" font-family="sans-serif" font-size="16.00">Player</text>
</g>
<!-- GameLoop&#45;&gt;Player -->
<g id="edge3" class="edge">
<title>GameLoop&#45;&gt;Player</title>
<path fill="none" stroke="black" stroke-width="2" d="M182.22,-302.82C231.2,-277.55 296.42,-243.89 340.62,-221.09"/>
<text text-anchor="middle" x="320.45" y="-264.23" font-family="sans-serif" font-size="12.00"> &#160;&#160;&#160;&#160;&#160;&#160;&#160;&#160;&#160;&#160;&#160;&#160;&#160;&#160;&#160;&#160;&#160;&#160;&#160;&#160;&#160;&#160;&#160;&#160;&#160;&#160;&#160;&#160;&#160;&#160;&#160;&#160;&#160;&#160;&#160;&#160;&#160;&#160;&#160;</text>
<polygon fill="white" stroke="transparent" points="322.62,-211.09 322.62,-230.09 338.62,-230.09 338.62,-211.09 322.62,-211.09"/>
<polyline fill="none" stroke="black" points="338.62,-211.09 338.62,-230.09 "/>
<text text-anchor="start" x="325.62" y="-217.49" font-family="sans-serif" font-size="12.00">D</text>
<polygon fill="white" stroke="transparent" points="338.62,-211.09 338.62,-230.09 358.62,-230.09 358.62,-211.09 338.62,-211.09"/>
<polygon fill="none" stroke="black" points="338.62,-211.09 338.62,-230.09 358.62,-230.09 358.62,-211.09 338.62,-211.09"/>
<text text-anchor="start" x="341.62" y="-217.49" font-family="sans-serif" font-size="12.00">CF</text>
<polygon fill="white" stroke="transparent" points="175.22,-293.82 175.22,-310.82 189.22,-310.82 189.22,-293.82 175.22,-293.82"/>
<text text-anchor="start" x="177.22" y="-299.22" font-family="sans-serif" font-size="12.00">U</text>
</g>
<!-- World&#45;&gt;Combat -->
<g id="edge4" class="edge">
<title>World&#45;&gt;Combat</title>
<path fill="none" stroke="black" stroke-width="2" d="M200.57,-148.17C199.5,-141.58 198.57,-134.85 197.95,-128.43 196.85,-117.14 196.35,-104.9 196.19,-93.51"/>
<text text-anchor="middle" x="231.95" y="-118.83" font-family="sans-serif" font-size="12.00">Partnership</text>
</g>
<!-- Player&#45;&gt;Combat -->
<g id="edge5" class="edge">
<title>Player&#45;&gt;Combat</title>
<path fill="none" stroke="black" stroke-width="2" d="M340.74,-158.33C327.45,-148.7 313.1,-138.22 299.95,-128.43 282.25,-115.27 263.01,-100.64 246,-87.61"/>
<text text-anchor="middle" x="360.45" y="-118.83" font-family="sans-serif" font-size="12.00"> &#160;&#160;&#160;&#160;&#160;&#160;&#160;&#160;&#160;&#160;&#160;&#160;&#160;&#160;&#160;&#160;&#160;&#160;&#160;&#160;&#160;&#160;&#160;&#160;&#160;&#160;&#160;&#160;&#160;&#160;&#160;&#160;&#160;&#160;&#160;&#160;&#160;&#160;&#160;</text>
<polygon fill="white" stroke="transparent" points="239,-78.61 239,-95.61 253,-95.61 253,-78.61 239,-78.61"/>
<text text-anchor="start" x="241" y="-84.01" font-family="sans-serif" font-size="12.00">D</text>
<polygon fill="white" stroke="transparent" points="333.74,-149.33 333.74,-166.33 347.74,-166.33 347.74,-149.33 333.74,-149.33"/>
<text text-anchor="start" x="335.74" y="-154.73" font-family="sans-serif" font-size="12.00">U</text>
</g>
<!-- Stats -->
<g id="node5" class="node">
<title>Stats</title>
<polygon fill="none" stroke="black" stroke-width="2" points="522.29,-78.04 519.82,-80.22 517.24,-82.31 514.56,-84.3 511.8,-86.17 508.97,-87.92 506.07,-89.55 503.12,-91.04 500.13,-92.4 497.11,-93.6 494.06,-94.66 490.99,-95.56 487.92,-96.3 484.86,-96.89 481.81,-97.3 478.78,-97.56 475.79,-97.65 472.83,-97.58 469.91,-97.34 467.04,-96.94 464.24,-96.38 461.49,-95.67 458.82,-94.81 456.22,-93.8 453.69,-92.66 451.25,-91.37 448.9,-89.96 446.64,-88.43 444.47,-86.79 442.39,-85.04 440.42,-83.19 438.54,-81.25 436.77,-79.23 435.1,-77.13 433.54,-74.98 432.09,-72.77 430.75,-70.51 429.52,-68.21 428.4,-65.89 427.39,-63.54 426.5,-61.18 425.73,-58.82 425.07,-56.46 424.54,-54.11 424.12,-51.77 423.82,-49.46 423.64,-47.17 423.59,-44.92 423.66,-42.71 423.86,-40.54 424.18,-38.43 424.63,-36.36 425.2,-34.35 425.91,-32.4 426.74,-30.51 427.71,-28.68 428.8,-26.92 430.03,-25.23 431.38,-23.61 432.86,-22.06 434.47,-20.58 436.21,-19.17 438.07,-17.83 440.05,-16.57 442.16,-15.38 444.38,-14.27 446.71,-13.23 449.16,-12.27 451.71,-11.38 454.36,-10.57 457.1,-9.83 459.93,-9.18 462.84,-8.6 465.82,-8.1 468.87,-7.68 471.98,-7.34 475.13,-7.09 478.33,-6.92 481.55,-6.83 484.79,-6.83 488.05,-6.93 491.3,-7.11 494.53,-7.38 497.75,-7.75 500.92,-8.21 504.05,-8.77 507.13,-9.43 510.13,-10.18 513.05,-11.04 515.88,-12 518.61,-13.06 521.22,-14.23 523.72,-15.5 526.07,-16.86 528.29,-18.34 530.35,-19.91 532.25,-21.58 533.99,-23.34 535.55,-25.2 536.94,-27.15 538.13,-29.19 539.14,-31.31 539.96,-33.5 540.57,-35.77 540.99,-38.11 541.21,-40.51 541.23,-42.96 541.05,-45.45 540.67,-47.98 540.1,-50.55 539.33,-53.13 538.38,-55.73 537.24,-58.32 535.92,-60.92 534.43,-63.49 532.78,-66.04 530.96,-68.55 529,-71.02 526.89,-73.43 524.66,-75.77 522.29,-78.04"/>
<text text-anchor="middle" x="478.95" y="-44.92" font-family="sans-serif" font-size="16.00">Stats</text>
</g>
<!-- Player&#45;&gt;Stats -->
<g id="edge6" class="edge">
<title>Player&#45;&gt;Stats</title>
<path fill="none" stroke="black" stroke-width="2" d="M411.23,-152.97C417.91,-140.74 425.5,-127.4 432.95,-115.43 438.03,-107.27 443.71,-98.74 449.3,-90.62"/>
<text text-anchor="middle" x="472.95" y="-118.83" font-family="sans-serif" font-size="12.00">Shared Kernel</text>
</g>
<!-- Item -->
<g id="node6" class="node">
<title>Item</title>
<polygon fill="none" stroke="black" stroke-width="2" points="430.31,-373.46 427.34,-371.74 424.49,-369.92 421.76,-368.03 419.17,-366.07 416.73,-364.04 414.45,-361.96 412.33,-359.83 410.39,-357.65 408.64,-355.44 407.08,-353.2 405.71,-350.94 404.55,-348.66 403.59,-346.38 402.85,-344.09 402.32,-341.81 402,-339.54 401.89,-337.29 401.99,-335.06 402.31,-332.86 402.83,-330.69 403.56,-328.56 404.48,-326.47 405.59,-324.43 406.89,-322.43 408.37,-320.49 410.02,-318.61 411.83,-316.78 413.79,-315.02 415.89,-313.32 418.13,-311.7 420.49,-310.14 422.95,-308.65 425.52,-307.24 428.18,-305.91 430.92,-304.65 433.72,-303.48 436.58,-302.38 439.48,-301.37 442.42,-300.45 445.39,-299.61 448.36,-298.85 451.35,-298.19 454.33,-297.62 457.29,-297.14 460.24,-296.75 463.16,-296.46 466.04,-296.26 468.88,-296.16 471.67,-296.16 474.41,-296.25 477.08,-296.45 479.7,-296.75 482.25,-297.15 484.73,-297.65 487.14,-298.25 489.47,-298.96 491.72,-299.77 493.89,-300.69 495.98,-301.7 497.99,-302.82 499.92,-304.04 501.76,-305.36 503.51,-306.78 505.18,-308.29 506.75,-309.9 508.25,-311.6 509.65,-313.38 510.96,-315.26 512.18,-317.21 513.31,-319.24 514.34,-321.34 515.28,-323.51 516.13,-325.74 516.87,-328.02 517.52,-330.36 518.06,-332.73 518.49,-335.14 518.82,-337.58 519.04,-340.04 519.15,-342.52 519.14,-345 519.01,-347.47 518.76,-349.94 518.38,-352.38 517.88,-354.79 517.24,-357.17 516.48,-359.5 515.57,-361.78 514.54,-363.99 513.36,-366.14 512.05,-368.2 510.59,-370.18 509,-372.06 507.26,-373.85 505.39,-375.52 503.38,-377.08 501.23,-378.52 498.96,-379.84 496.55,-381.02 494.02,-382.08 491.37,-382.99 488.61,-383.76 485.74,-384.38 482.78,-384.87 479.72,-385.2 476.58,-385.38 473.37,-385.42 470.1,-385.31 466.77,-385.05 463.41,-384.65 460.01,-384.11 456.61,-383.43 453.19,-382.61 449.79,-381.66 446.41,-380.58 443.06,-379.38 439.77,-378.06 436.54,-376.63 433.38,-375.1 430.31,-373.46"/>
<text text-anchor="middle" x="464.95" y="-334.73" font-family="sans-serif" font-size="16.00">Item</text>
</g>
<!-- Item&#45;&gt;Player -->
<g id="edge7" class="edge">
<title>Item&#45;&gt;Player</title>
<path fill="none" stroke="black" stroke-width="2" d="M427.55,-305.76C418.55,-296.35 409.85,-285.43 403.95,-273.83 398.32,-262.77 394.92,-249.82 392.88,-237.68"/>
<text text-anchor="middle" x="458.45" y="-264.23" font-family="sans-serif" font-size="12.00">Customer/Supplier</text>
<polygon fill="white" stroke="transparent" points="385.88,-228.68 385.88,-245.68 399.88,-245.68 399.88,-228.68 385.88,-228.68"/>
<text text-anchor="start" x="387.88" y="-234.08" font-family="sans-serif" font-size="12.00">D</text>
<polygon fill="white" stroke="transparent" points="420.55,-296.76 420.55,-313.76 434.55,-313.76 434.55,-296.76 420.55,-296.76"/>
<text text-anchor="start" x="422.55" y="-302.16" font-family="sans-serif" font-size="12.00">U</text>
</g>
<!-- Item&#45;&gt;Stats -->
<g id="edge8" class="edge">
<title>Item&#45;&gt;Stats</title>
<path fill="none" stroke="black" stroke-width="2" d="M497.57,-302.48C503.87,-293.74 509.56,-283.94 512.95,-273.83 535.29,-207.07 529.6,-183.84 512.95,-115.43 510.94,-107.19 507.71,-98.84 504.02,-90.97"/>
<text text-anchor="middle" x="566.95" y="-191.53" font-family="sans-serif" font-size="12.00">Shared Kernel</text>
</g>
</g>
</svg>
